<svg xmlns="http://www.w3.org/2000/svg" width="100mm" height="100mm" viewBox="0 0 100 100">
    <g>
        <path d="M33.194 706.772v94.488h193.04l65.883-94.488z" transform="matrix(.26458 0 0 .26458 -8.782 -187)"/>
        <path d="M406.545 706.772 235.449 801.26l65.883-94.488z" transform="matrix(.26458 0 0 .26458 -8.782 -187)"/>
        <path d="M225.658 815.302 70.45 1037.901 396.816 720.78Z" transform="matrix(.26458 0 0 .26458 -8.782 -187)"/>
        <path d="M411.146 1084.724v-94.488h-193.04l-65.883 94.488z" transform="matrix(.26458 0 0 .26458 -8.782 -187)"/>
        <path d="m143.008 1084.724 65.883-94.488-171.096 94.488Z" transform="matrix(.26458 0 0 .26458 -8.782 -187)"/>
        <path d="m47.524 1070.716 326.367-317.12-155.21 222.598Z" transform="matrix(.26458 0 0 .26458 -8.782 -187)"/>
    </g>
</svg>